<?xml version="1.0" encoding="UTF-8"?>
<svg version="1.1" viewBox="0 0 2048 2048" width="1280" height="1280" xmlns="http://www.w3.org/2000/svg">
<path transform="translate(1237,14)" d="m0 0h150l18 1 12 4 11 7 7 7 7 11 4 12 1 20v90l1 3 25 10 5-1 71-71 11-8 13-5 7-1h9l12 2 12 6 10 8 110 110 8 10 5 10 2 7 1 14-3 14-6 12-11 12-5 6-6 5-56 56 1 5 8 19 2 5 103 1 15 2 14 7 10 9 7 10 4 10 1 5v58h81l15 2 10 4 10 6 11 10 9 14 4 11 1 5 1 71v54l-1 244-3 8-5 7-10 6-11 3v78l7 2 10 4 7 7 4 8 1 3 1 31v560l24 5 16 7 10 7 8 7 8 11 7 14 5 17 1 5v30l-5 21-7 20-8 16-9 14-9 11-16 16-14 10-17 10-20 8-20 5-14 2-15 1h-1031l-108 1-11 21-16 24-11 14-9 10-7 8-6 5-5 5-11 10-19 14-18 11-27 14-23 9-24 7-24 5-22 3-11 1h-37l-28-3-29-6-26-8-22-9-16-8-16-9-12-8-16-12-14-12-22-22-11-14-12-16-13-22-6-12-80-1-22-2-18-4-19-7-16-8-12-8-11-9-11-10-7-8-11-15-9-16-8-20-5-19-2-10v-33l7-20 7-12 9-11 10-9 16-9 12-4 13-2h5v-1070l1-17 4-14 6-10 8-10 11-9 13-6 7-2 8-1h667v-57l4-13 6-10 8-9 11-7 8-3 12-2 105-1 5-12 6-14-1-4-71-71-8-11-5-12-2-14 3-16 6-12 9-10 6-7 6-5 6-7 6-5 6-7 6-5 6-7 6-5 6-7 6-5 6-7 6-5 6-7 6-5 6-7 4-4h2l2-4h2l2-4 13-12 8-5 12-4 6-1h10l14 3 11 6 12 11 65 65 6 1 24-10 1-5 1-107 4-12 6-10 7-8 10-7 10-4zm63 356-20 3-15 4-20 8-19 11-14 11-7 6-7 8-10 12-11 18-8 18-7 22v5h307l-1-9-8-24-12-23-12-16-11-12-13-11-15-10-16-8-19-7-22-5-8-1z" fill="#6ADBEA"/>
<path transform="translate(1237,14)" d="m0 0h150l18 1 12 4 11 7 7 7 7 11 4 12 1 20v90l1 3 25 10 5-1 71-71 11-8 13-5 7-1h9l12 2 12 6 10 8 110 110 8 10 5 10 2 7 1 14-3 14-6 12-11 12-5 6-6 5-56 56 1 5 8 19 2 5 103 1 15 2 14 7 10 9 7 10 4 10 1 5v58h81l15 2 10 4 10 6 11 10 9 14 4 11 1 5 1 71v54l-1 244-3 8-5 7-10 6-8 2h-9l-11-4-8-7-4-7-2-12-1-353h-1767v1077h79l3-3 11-24 12-21 13-19 11-14 15-16 14-14 14-11 13-10 21-13 25-13 23-9 27-8 25-5 27-3h40l33 4 23 5 26 8 24 10 25 13 24 16 14 11 12 11 17 17 9 11 13 17 13 21 14 27 6 12h81l68-1h947l46 1v-581l1-11 5-10 7-7 9-4 10-1 12 3 6 4 6 7 4 9 1 31v560l24 5 16 7 10 7 8 7 8 11 7 14 5 17 1 5v30l-5 21-7 20-8 16-9 14-9 11-16 16-14 10-17 10-20 8-20 5-14 2-15 1h-1031l-108 1-11 21-16 24-11 14-9 10-7 8-6 5-5 5-11 10-19 14-18 11-27 14-23 9-24 7-24 5-22 3-11 1h-37l-28-3-29-6-26-8-22-9-16-8-16-9-12-8-16-12-14-12-22-22-11-14-12-16-13-22-6-12-80-1-22-2-18-4-19-7-16-8-12-8-11-9-11-10-7-8-11-15-9-16-8-20-5-19-2-10v-33l7-20 7-12 9-11 10-9 16-9 12-4 13-2h5v-1070l1-17 4-14 6-10 8-10 11-9 13-6 7-2 8-1h667v-57l4-13 6-10 8-9 11-7 8-3 12-2 105-1 5-12 6-14-1-4-71-71-8-11-5-12-2-14 3-16 6-12 9-10 6-7 6-5 6-7 6-5 6-7 6-5 6-7 6-5 6-7 6-5 6-7 6-5 6-7 6-5 6-7 4-4h2l2-4h2l2-4 13-12 8-5 12-4 6-1h10l14 3 11 6 12 11 65 65 6 1 24-10 1-5 1-107 4-12 6-10 7-8 10-7 10-4zm63 356-20 3-15 4-20 8-19 11-14 11-7 6-7 8-10 12-11 18-8 18-7 22v5h307l-1-9-8-24-12-23-12-16-11-12-13-11-15-10-16-8-19-7-22-5-8-1z" fill="#010000"/>
<path transform="translate(447,816)" d="m0 0h1151l15 3 12 6 10 9 7 10 5 12 2 11v453l-2 15-5 12-6 9-7 7-13 8-9 3-8 1h-906l-10-3-6-4-7-8-4-12v-4h-78l-5 16-9 10-9 4-5 1h-111l-10-2-12-5-9-6-7-7-8-14-3-11-1-12v-447l2-15 5-12 6-8 5-6 11-8 12-5z" fill="#BEF49C"/>
<path transform="translate(447,816)" d="m0 0h1151l15 3 12 6 10 9 7 10 5 12 2 11v453l-2 15-5 12-6 9-7 7-13 8-9 3-8 1h-906l-10-3-6-4-7-8-3-8v-14l4-10 6-7 9-5 4-1 162-1h536l133-1h66v-436h-1126v437h73l29 1 9 3 8 7 5 9 1 4v13l-3 9-9 10-9 4-5 1h-111l-10-2-12-5-9-6-7-7-8-14-3-11-1-12v-447l2-15 5-12 6-8 5-6 11-8 12-5z" fill="#010000"/>
<path transform="translate(1245,75)" d="m0 0h141l1 88 1 21 4 13 7 11 9 8 16 8 24 10 15 6 11 2 15-1 11-4 10-7 10-9 64-64h3l7 8 90 90 1 3-15 14-7 8h-2l-2 4-24 24h-2l-2 4h-2l-2 4h-2l-2 4-12 12-6 10-4 11-1 6v11l3 12 14 34 7 16 9 10 10 7 11 4 4 1 15 1h93l1 1v39l-4 1h-232l-2-7-6-24-7-21-9-20-11-19-12-16-12-14-9-9-11-9-15-11-21-12-21-9-18-6-22-5-14-2-13-1h-24l-27 3-22 5-24 8-25 12-17 11-12 9-10 9h-2l-1 3-5 5h-2l-2 4-9 10-12 17-10 18-7 15-7 19-6 22-3 14-2 1h-234l-1-1v-39l95-1 15-1 10-3 11-6 6-5 7-10 7-15 10-24 5-14 2-12-1-12-5-12-7-11-72-72 2-5 11-11 8-7 11-12 26-26 8-7 19-19 7-8 3-1 2-4h4l69 69 11 8 11 5 11 2 15-1 16-6 24-10 14-6 8-6 7-7 6-11 3-8 1-9z" fill="#B5C3CC"/>
<path transform="translate(782,1695)" d="m0 0h1189l8 3 7 8 2 6v17l-3 14-5 13-7 13-8 10-11 11-14 9-10 5-17 5-17 2h-1119l1-7 4-23 2-20v-39l-2-19-1-7z" fill="#FBFDFD"/>
<path transform="translate(476,1510)" d="m0 0h40l26 4 22 6 25 10 15 8 1 2-13 19-10 13-14 19-12 16-56 76-15 20-11 15-6 12-1 4v14l5 12 8 10 14 11 16 13 13 10 14 11 16 13 14 11 25 20 14 11 16 13 13 10 16 13 3 4-10 9-11 9-14 10-15 9-23 11-24 8-22 5-24 3h-34l-27-4-30-8-20-8-19-9-18-11-19-14-15-14-13-13-11-14-9-13-8-13-10-21-6-17-6-21-4-25-1-12v-33l3-24 6-25 6-18 10-22 10-17 10-14 13-16 18-18 14-11 12-9 15-9 19-10 23-9 20-6 22-4z" fill="#FB989D"/>
<path transform="translate(142,556)" d="m0 0h1721v1l-1643 1-10 5-1 7-1 67 1 32v749l1 44v102l1 55 2 5 5 3 1 8h-77l-2-1v-1077z" fill="#00CAE2"/>
<path transform="translate(1220,950)" d="m0 0h8l9 2 9 5 7 7 5 10 7 22 22 75 12 41 1 1 7-25 7-23 23-81 4-13 6-9 8-7 9-4 6-1h8l13 4 9 7 6 9 4 14 23 120 18 95 1 6v10l-6 12-7 7-8 4-4 1h-9l-10-3-8-6-6-8-4-16-12-62-8-42v-7h-2l-1 6-7 25-16 56-8 29-5 13-9 10-10 5-7 2h-8l-13-4-9-6-7-10-6-18-14-48-16-54-2-5-5 30-13 72-4 20-5 10-8 7-11 4h-9l-10-3-9-7-6-10-1-4v-12l7-40 17-93 9-51 7-37 4-13 6-8 7-6 9-4z" fill="#010000"/>
<path transform="translate(931,950)" d="m0 0h71l15 2 13 4 16 8 11 8 7 6 11 14 8 16 4 13 2 10v18l-3 14-5 14-6 11-7 9-7 8-10 8-14 8-10 4h-2l9 11 9 10 7 8 12 14 12 13 8 10 5 8 2 7v9l-4 11-7 8-8 5-7 2h-7l-10-3-9-6-11-12-9-11-11-12-7-8-12-14-11-12-7-8-3-4-1 23-1 43-4 10-7 8-8 4-8 2-10-1-12-6-5-5-4-7-2-9v-235l2-9 5-8 9-8 5-2z" fill="#010000"/>
<path transform="translate(734,950)" d="m0 0h20l16 2 16 4 19 8 16 9 10 9 4 8 1 4v13l-6 12-8 7-10 4h-11l-12-5-16-8-13-4-6-1h-24l-17 4-11 5-12 7-12 11-9 13-6 13-4 14-1 8v17l3 16 6 15 7 12 12 13 15 10 12 5 17 4 13 1 17-2 13-5 9-6 10-9 7-6 11-4h8l10 3 8 6 6 9 2 5 1 8-2 9-5 9-9 10-10 9-16 10-14 7-16 5-18 3h-22l-21-3-20-6-23-11-12-8-10-8-10-9-11-12-12-18-8-16-6-18-3-16-1-8v-19l3-26 5-16 7-17 10-16 10-13 15-15 15-11 15-9 16-7 20-6 11-2z" fill="#010000"/>
<path transform="translate(653,1576)" d="m0 0 4 1 7 8 8 8 12 16 11 18 8 16 8 19 7 24 4 20 3 27v24l-3 27-6 25-7 20-11 23-6 9-5-3-13-10-25-20-14-11-25-20-14-11-15-12-14-11-16-13-13-10-3-2 2-5 13-18 15-20 42-57 9-12 28-38z" fill="#FEE17D"/>
<path transform="translate(455,1513)" d="m0 0h6l-2 6-14 9-8 6-6 5h-3v2l-10 8-9 9h-2l-2 4-7 8h-2l-2 4-5 8h-2l-2 5-7 10-2 1-6 12-8 15-6 12-6 16-5 15-3 13-2 7-2 8-2 16-1 6-1 12v15l2 26 5 30 6 23 8 22 8 15 7 14 7 11 12 17 1 3h2l3 4v2l3 1 7 8 4 4v2l4 2 14 14 14 10 15 8 4 2 1 6 17 3h44v1l-11 1h-34l-27-4-30-8-20-8-19-9-18-11-19-14-15-14-13-13-11-14-9-13-8-13-10-21-6-17-6-21-4-25-1-12v-33l3-24 6-25 6-18 10-22 10-17 10-14 13-16 18-18 14-11 12-9 15-9 19-10 23-9 20-6z" fill="#FE8288"/>
<path transform="translate(77,1695)" d="m0 0h127l-1 16-1 13v37l3 27 3 16v7h-61l-18-3-16-6-13-8-11-9-10-11-9-14-6-14-3-12-1-7v-15l5-10 8-6z" fill="#FAFCFD"/>
<path transform="translate(1045,157)" d="m0 0 4 2 46 46-1 4h-3l-2 5-13 28-12 27-12 29-8 24-7 23-3 7-1 7h-1l-3-12-7-13-11-12-64-64 2-5 11-11 8-7 11-12 26-26 8-7 19-19 7-8 3-1 2-4z" fill="#A0B0B8"/>
<path transform="translate(476,920)" d="m0 0h5l2 9 3 6 3 9h2l-1 3 2 6 4 5 2 5v6l5 1 1 7h2l1 5v7l-3 1-2-5 1 8-1 2h-2v5l1 3h-5l-1 5-4 2 1 7-1 2v13l2 2v15l4 4-1 12-1 9v2h2l1 5 4 1 2 1v12l2 3-7 3-2 1-2-1 4 8 5-1 2 1-1 10 1 6 1 4-2 1-1-2h-4v6l5 1 2-1 1 5-2 1-3 6-3 3v2h6l1 2v6l-3 2 1 6 1 2h-2l3 9-1 6h1v12l-3-1v4h2l-1 3-3 4 1 6 2 4-2 6-3 1v-2h-3l1 3-1 3h3l1 6v3 2h2l2 6-1 6h-3l-2-1-4 2 1 5 2 2 2 4 3 5v3l3 1v9l2 7-1 1v8l2 4v10l18 1 3 3-52 1h-17l4-2-3-9v-31l1-11 2-5v-2h-2v-2h2l-1-8 1-9v-53l1-3v-145l-1-5 1-15-1-8 2-8-1-5-1-6 1-5v-19-2l-1-7 1-4h2v-18l2-5h2l1-3 2-1v-3z" fill="#97E6AC"/>
<path transform="translate(1021,405)" d="m0 0 2 1-2 12-1 7-4 36-2 24-1 9 86 1v1h-234l-1-1v-39l95-1 15-1 10-3 11-6 6-5 7-10 5-10 3-3z" fill="#A0B0B8"/>
<path transform="translate(965,1010)" d="m0 0h24l14 1 11 4 9 8 5 10v14l-4 9-4 5-9 6-12 3h-34l-1-7v-30z" fill="#BEF39C"/>
<path transform="translate(322,1585)" d="m0 0 2 1-2 6h-3l-1 4h-2l-1 4h-3l-2 7-1 3h-2l-2 4-4 2-1 6-5 7-7 16h-2l-1 6-1 2h-2l1 3-3 9h-2l-2 12h-2l-1 5-3-1 1-9 6-17 9-20 10-17 10-14 13-16z" fill="#FB969B"/>
<path transform="translate(277,1818)" d="m0 0h1l1 9 3 1 3 7 7 14v2h2l1 6 4 1v6l4 2v2h2l6 9v2l2 1v2h2v2l4 2 4 4 4 10 3 3v2l-4-2-10-10-11-14-9-13-8-13-10-21-3-8v-5z" fill="#FC959A"/>
<path transform="translate(864,456)" d="m0 0h16v1l-3 1h3v2l-8 2v2h-2l-1 2v14l2 7v4h2v2h93l3 2h-105z" fill="#B3C2CB"/>
<path transform="translate(1765,473)" d="m0 0h1l1 22h-130v-1l124-1 2-1 1-4z" fill="#FCFEFE"/>
<path transform="translate(1294,307)" d="m0 0h20l24 2 11 2v1l-21-1h-36l3-1z" fill="#A0B0B8"/>
<path transform="translate(322,1585)" d="m0 0 2 1-2 6h-3l-1 4h-2l-1 4h-3v2l-7 5 2-4 11-14z" fill="#FD9096"/>
<path transform="translate(1765,455)" d="m0 0 2 1-1 6-2-4-56-1v-1z" fill="#FAFCFC"/>
<path transform="translate(461,1273)" d="m0 0 2 1v31l3 9h-5z" fill="#BFF59C"/>
<path transform="translate(361,1930)" d="m0 0 5 2 6 4 10 6-4 1-15-9z" fill="#FD9095"/>
<path transform="translate(500,1053)" d="m0 0 3 4-1 11-4-1z" fill="#97E7AC"/>
<path transform="translate(1765,473)" d="m0 0h1l1 22h-5l-1-3h2l1-4z" fill="#F8FBFB"/>
<path transform="translate(408,1955)" d="m0 0 6 1 13 5v1h-7l-5-2v-2l-7-2z" fill="#FC9297"/>
<path transform="translate(331,1905)" d="m0 0 7 5v2l4 2v2l-5-2-6-6z" fill="#FC9297"/>
<path transform="translate(316,1594)" d="m0 0 2 2h-2l-1 4h-3v2l-7 5 2-4 4-5z" fill="#FC9398"/>
<path transform="translate(347,1919)" d="m0 0 4 2 7 5v2l-5-1-4-3z" fill="#FC9399"/>
<path transform="translate(1019,405)" d="m0 0h2l-1 5-5 11-1-4z" fill="#AEBCC5"/>
<path transform="translate(461,1305)" d="m0 0h2l3 9h-5z" fill="#C1F59F"/>
</svg>
